# xmcd CD database file
#
# Track frame offsets:
#	150
#	23399
#	44844
#	62790
#	85181
#	105327
#	127146
#	149630
#	173711
#	194018
#	215432
#	238003
#	261073
#	280075
#	309496
#
# Disc length: 4435 seconds
#
# Revision: 1
# Processed by: cddbd v1.5.1PL2 Copyright (c) Steve Scherf et al.
# Submitted via: CDex 1.51
#
DISCID=dd11510f
DTITLE=Varios Artistas - Salsa Total
DYEAR=1900
DGENRE=Salsa
TTITLE0=Ven Devorame Otra Vez-Lalo Rodriguez
TTITLE1=Lluvia-Eddie Santiago
TTITLE2=Mi Mujer Es Una Bomba-Oscar d'Leon
TTITLE3=Hay Otra En Tu Lugar-Ray Sepulveda
TTITLE4=Amaneci En Tu Brazos-Tito Nieves
TTITLE5=Que Ganas De No Verte Mas-India
TTITLE6=Si Tu Supieras-Tony Vega
TTITLE7=Casi Te Envidio-Andy Montanez
TTITLE8=Mi Libertad-Frankie Ruiz
TTITLE9=Cuando Parara La Lluvia-Johnny Riviera
TTITLE10=Dejame Sonar-Tito Puente and Tito Vega
TTITLE11=La Paella-Jose Alberto
TTITLE12=El Pito Asi Se Goza-Isodro Infante
TTITLE13=Atrevida-Tommy Olivencia
TTITLE14=Aquel Viejo Motel-David Pavon
EXTD=
EXTT0=
EXTT1=
EXTT2=
EXTT3=
EXTT4=
EXTT5=
EXTT6=
EXTT7=
EXTT8=
EXTT9=
EXTT10=
EXTT11=
EXTT12=
EXTT13=
EXTT14=
PLAYORDER=
